<svg width="26" height="18" viewBox="0 0 26 18" fill="none" xmlns="http://www.w3.org/2000/svg">
<path d="M19.5401 2.93595C19.5092 2.00022 19.0191 1.13982 18.2301 0.635952C17.1624 -0.0587249 15.8244 -0.192906 14.6401 0.275952L10.0901 2.04595C8.93465 2.45317 8.14291 3.52201 8.09006 4.74595V12.066C7.69016 11.8526 7.24329 11.7426 6.79006 11.746C5.66071 11.746 4.64274 12.4268 4.2115 13.4706C3.78025 14.5144 4.02079 15.7152 4.8208 16.5123C5.62081 17.3095 6.82247 17.5457 7.8647 17.1107C8.90692 16.6757 9.58411 15.6553 9.58006 14.526C9.58434 14.4727 9.58434 14.4192 9.58006 14.366V4.74595C9.6384 4.13284 10.0609 3.61552 10.6501 3.43595L15.1901 1.63595C15.9165 1.35377 16.7339 1.43551 17.3901 1.85595C17.7746 2.08845 18.0183 2.49708 18.0401 2.94595V10.216C17.6417 9.99647 17.1949 9.87963 16.7401 9.87595C15.2153 9.86694 13.9657 11.0837 13.9342 12.6082C13.9026 14.1327 15.1009 15.4001 16.6247 15.4542C18.1486 15.5082 19.4335 14.3288 19.5101 12.806C19.5147 12.7594 19.5147 12.7125 19.5101 12.666L19.5401 2.93595Z" fill="#786CFF"/>
<path d="M1.66815 12.5557C0.92829 12.9284 0.630642 13.8303 1.00333 14.5702C1.37603 15.31 2.27793 15.6077 3.01779 15.235L23.966 4.6827C24.7058 4.31001 25.0035 3.40811 24.6308 2.66825C24.2581 1.92839 23.3562 1.63074 22.6163 2.00343L1.66815 12.5557Z" fill="white" stroke="#786CFF" stroke-linecap="round"/>
</svg>
