<svg width="42" height="36" viewBox="0 0 42 36" fill="none" xmlns="http://www.w3.org/2000/svg">
<rect x="5" y="8" width="4" height="4" fill="black"/>
<rect x="5" y="12" width="4" height="4" fill="black"/>
<rect x="2" y="10" width="4" height="4" fill="black"/>
<rect y="8" width="4" height="4" fill="black"/>
<rect x="8" y="10" width="4" height="4" fill="black"/>
<rect x="10" y="8" width="4" height="4" fill="black"/>
<rect x="5" y="4" width="4" height="4" fill="black"/>
<rect x="6" y="1" width="4" height="4" fill="black"/>
<rect x="9" width="4" height="4" fill="black"/>
<rect x="13" width="4" height="4" fill="black"/>
<rect x="17" width="4" height="4" fill="black"/>
<rect x="21" width="4" height="4" fill="black"/>
<rect x="25" width="4" height="4" fill="black"/>
<rect x="29" width="4" height="4" fill="black"/>
<rect x="33" width="4" height="4" fill="black"/>
<rect x="15" y="11" width="4" height="4" fill="black"/>
<rect x="17" y="9" width="4" height="4" fill="black"/>
<rect x="19" y="9" width="4" height="4" fill="black"/>
<rect x="19" y="12" width="4" height="4" fill="black"/>
<rect x="19" y="16" width="4" height="4" fill="black"/>
<rect x="19" y="20" width="4" height="4" fill="black"/>
<rect x="19" y="24" width="4" height="4" fill="black"/>
<rect x="22" y="24" width="4" height="4" fill="black"/>
<rect x="16" y="24" width="4" height="4" fill="black"/>
<rect x="37" y="28" width="4" height="4" transform="rotate(-180 37 28)" fill="black"/>
<rect x="37" y="24" width="4" height="4" transform="rotate(-180 37 24)" fill="black"/>
<rect x="40" y="26" width="4" height="4" transform="rotate(-180 40 26)" fill="black"/>
<rect x="42" y="28" width="4" height="4" transform="rotate(-180 42 28)" fill="black"/>
<rect x="34" y="26" width="4" height="4" transform="rotate(-180 34 26)" fill="black"/>
<rect x="32" y="28" width="4" height="4" transform="rotate(-180 32 28)" fill="black"/>
<rect x="37" y="32" width="4" height="4" transform="rotate(-180 37 32)" fill="black"/>
<rect x="36" y="35" width="4" height="4" transform="rotate(-180 36 35)" fill="black"/>
<rect x="33" y="36" width="4" height="4" transform="rotate(-180 33 36)" fill="black"/>
<rect x="29" y="36" width="4" height="4" transform="rotate(-180 29 36)" fill="black"/>
<rect x="25" y="36" width="4" height="4" transform="rotate(-180 25 36)" fill="black"/>
<rect x="21" y="36" width="4" height="4" transform="rotate(-180 21 36)" fill="black"/>
<rect x="17" y="36" width="4" height="4" transform="rotate(-180 17 36)" fill="black"/>
<rect x="13" y="36" width="4" height="4" transform="rotate(-180 13 36)" fill="black"/>
<rect x="9" y="36" width="4" height="4" transform="rotate(-180 9 36)" fill="black"/>
</svg>
