<svg width="16" height="18" viewBox="0 0 16 18" fill="none" xmlns="http://www.w3.org/2000/svg">
<path d="M15.5401 2.93595C15.5092 2.00022 15.0191 1.13982 14.2301 0.635952C13.1624 -0.0587249 11.8244 -0.192906 10.6401 0.275952L6.09006 2.04595C4.93465 2.45317 4.14291 3.52201 4.09006 4.74595V12.066C3.69016 11.8526 3.24329 11.7426 2.79006 11.746C1.66071 11.746 0.642744 12.4268 0.211498 13.4706C-0.219749 14.5144 0.0207906 15.7152 0.8208 16.5123C1.62081 17.3095 2.82247 17.5457 3.8647 17.1107C4.90692 16.6757 5.58411 15.6553 5.58006 14.526C5.58434 14.4727 5.58434 14.4192 5.58006 14.366V4.74595C5.6384 4.13284 6.06094 3.61552 6.65006 3.43595L11.1901 1.63595C11.9165 1.35377 12.7339 1.43551 13.3901 1.85595C13.7746 2.08845 14.0183 2.49708 14.0401 2.94595V10.216C13.6417 9.99647 13.1949 9.87963 12.7401 9.87595C11.2153 9.86694 9.9657 11.0837 9.93418 12.6082C9.90265 14.1327 11.1009 15.4001 12.6247 15.4542C14.1486 15.5082 15.4335 14.3288 15.5101 12.806C15.5147 12.7594 15.5147 12.7125 15.5101 12.666L15.5401 2.93595Z" fill="#0B1C3F"/>
</svg>
