<svg width="25" height="25" viewBox="0 0 25 25" fill="none" xmlns="http://www.w3.org/2000/svg">
<path fill-rule="evenodd" clip-rule="evenodd" d="M11.4583 3.125V4.16667H10.4167V5.20833H9.375V6.25H8.33333V7.29167H7.29167V8.33333H6.25V9.375H5.20833V10.4167H4.16667V11.4583H3.125V13.5417H4.16667V14.5833H5.20833V15.625H6.25V16.6667H7.29167V17.7083H8.33333V18.75H9.375V19.7917H10.4167V20.8333H11.4583V21.875H13.5417V3.125H11.4583ZM11.4583 16.6667H10.4167V15.625H9.375V14.5833H8.33333V13.5417H7.29167V11.4583H8.33333V10.4167H9.375V9.375H10.4167V8.33333H11.4583V16.6667ZM16.6667 14.5833H17.7083V10.4167H16.6667V9.375H15.625V15.625H16.6667V14.5833ZM19.7917 6.25V7.29167H20.8333V17.7083H19.7917V18.75H15.625V16.6667H17.7083V15.625H18.75V9.375H17.7083V8.33333H15.625V6.25H19.7917Z" fill="black"/>
</svg>
